<svg xmlns="http://www.w3.org/2000/svg" viewBox="0 0 24 21"><defs><style>.cls-1{fill:#fff;}</style></defs><title>切换相机</title><g id="图层_2" data-name="图层 2"><g id="图层_1-2" data-name="图层 1"><path class="cls-1" d="M21.75,3H17.4L16.05.75A1.34,1.34,0,0,0,14.85,0H9.15A1.34,1.34,0,0,0,8,.75L6.6,3H2.25A2.31,2.31,0,0,0,0,5.25v13.5A2.31,2.31,0,0,0,2.25,21h19.5A2.31,2.31,0,0,0,24,18.75V5.25A2.31,2.31,0,0,0,21.75,3ZM7.23,8.77a.85.85,0,0,1,.84-.85A.86.86,0,0,1,8.43,8a5,5,0,0,1,8.3,1.88A.85.85,0,0,1,16.2,11a.92.92,0,0,1-.28.05.85.85,0,0,1-.79-.57,3.31,3.31,0,0,0-4.2-2.06,3.33,3.33,0,0,0-2.06,2.05.84.84,0,0,1-1.64-.27Zm9.54,5.48a.85.85,0,0,1-.84.84.91.91,0,0,1-.37-.08,5,5,0,0,1-8.28-1.85.86.86,0,0,1,.06-.67.82.82,0,0,1,.5-.41.85.85,0,0,1,1,.5,3.31,3.31,0,0,0,6.25,0,.81.81,0,0,1,.25-.36.86.86,0,0,1,.56-.21.85.85,0,0,1,.84.84Z"/></g></g></svg>