<svg xmlns="http://www.w3.org/2000/svg" viewBox="0 0 214 193.24"><defs><style>.cls-1,.cls-6,.cls-9{fill:#fff;}.cls-1,.cls-10,.cls-3,.cls-4,.cls-5,.cls-6,.cls-7,.cls-9{stroke:#000;}.cls-1,.cls-3,.cls-4,.cls-7,.cls-9{stroke-linecap:round;}.cls-1,.cls-10,.cls-3,.cls-4,.cls-5,.cls-6{stroke-miterlimit:10;}.cls-1,.cls-3,.cls-5,.cls-6,.cls-7,.cls-9{stroke-width:2px;}.cls-2{fill:#ffd832;}.cls-3,.cls-4,.cls-5,.cls-7{fill:none;}.cls-7,.cls-9{stroke-linejoin:round;}.cls-10,.cls-8{fill:#ffda31;}</style></defs><title>暂无视频直播信息</title><g id="图层_2" data-name="图层 2"><g id="图层_1-2" data-name="图层 1"><path class="cls-1" d="M40.25,15.31s-22.38.5-20.19,19.94c.56.88,16.74,4.63,22.19-3.62C48.71,21.82,40.25,15.31,40.25,15.31Z"/><path class="cls-2" d="M43.42,35.82c-7,6.16-18.74,4.32-23.54.52a29.93,29.93,0,0,1,5.58-11.19c4.42-5.57,17.42-9.39,19.25-7.4C48.86,22.25,48.74,31.1,43.42,35.82Z"/><path class="cls-3" d="M20.62,34.5s7.09-2.09,16-11S43.12,1,43.12,1"/><path class="cls-3" d="M40.25,15.31s-22.38.5-20.19,19.94c.56.88,16.74,4.63,22.19-3.62C48.71,21.82,40.25,15.31,40.25,15.31Z"/><line class="cls-4" x1="35.93" y1="24.18" x2="37.75" y2="30.88"/><line class="cls-1" x1="169.08" y1="25.42" x2="179.08" y2="25.42"/><line class="cls-1" x1="174.08" y1="30.42" x2="174.08" y2="20.42"/><circle class="cls-5" cx="31.53" cy="121.22" r="4"/><circle class="cls-6" cx="103.61" cy="66.08" r="40.67"/><path class="cls-7" d="M92.83,37.72a30.13,30.13,0,0,1,5-1.42"/><path class="cls-7" d="M76.5,52.46a30.42,30.42,0,0,1,9.55-11.11"/><ellipse class="cls-6" cx="103.61" cy="86" rx="80.5" ry="24.5"/><ellipse class="cls-8" cx="103.61" cy="95.75" rx="80.5" ry="23.08"/><ellipse class="cls-5" cx="103.61" cy="86" rx="80.5" ry="24.5"/><path class="cls-6" d="M68.08,83.12s12.5-3.87,34.25-3.87a177.44,177.44,0,0,1,37.75,3.87l29,78.71H32.67Z"/><polygon class="cls-8" points="150.33 110.94 140.75 82.65 122.61 80.34 149.96 162.11 176.21 162.11 157.99 108.84 150.33 110.94"/><line class="cls-9" x1="179.67" y1="161.83" x2="9.83" y2="161.83"/><line class="cls-9" x1="184.11" y1="161.83" x2="192.17" y2="161.83"/><line class="cls-9" x1="195.67" y1="161.83" x2="213" y2="161.83"/><line class="cls-9" x1="1" y1="161.83" x2="5.75" y2="161.83"/><line class="cls-9" x1="69.33" y1="98.39" x2="68" y2="101.31"/><line class="cls-9" x1="66.5" y1="104.15" x2="60.67" y2="117.72"/><path class="cls-5" d="M68.08,83.12s12.5-3.87,34.25-3.87a177.44,177.44,0,0,1,37.75,3.87l29,78.71H32.67Z"/><path class="cls-10" d="M94.13,112l20.15,11.76a1.76,1.76,0,0,1,0,3.06L94.13,138.53A1.77,1.77,0,0,1,91.48,137V113.48A1.77,1.77,0,0,1,94.13,112Z"/><circle class="cls-10" cx="119.46" cy="142.23" r="8.19"/><path class="cls-10" d="M137.51,167a38.07,38.07,0,0,1-4.66-5.65c-2.53-3.76-3.71-7.27-5.21-8.94-1.16-1.3-2.36-1.65-5-.74-3.33,1.15-4.94.09-7.08-.33a4,4,0,0,0-4.92,2.84A53.48,53.48,0,0,0,108.06,165c-1,7.19-.83,8,.5,8.29,1,.2,2.46-2.25,2.72-6a14.57,14.57,0,0,1,1.13-4.88c.09-.11,0,.27,0,.27s.59,8.56.69,11c.34,8.27.46,12.6.64,15.16a2.09,2.09,0,0,0,2,2.22,2.13,2.13,0,0,0,2.23-2c0-.31,1.56-15.76,2.29-15.64.61,0,1.93,15.53,2.17,17,.19,1.19.9,2.25,1.89,2.25,1.92,0,2.19-2.14,2.2-2.25.26-2.86-.41-16.06-.55-17.46-.29-2.87.6-13.36.6-13.36s.16-.54.69,0c.12.12,4,6.92,6.31,8.09,1.72.86,3.77.68,4,.18C138,167.64,137.55,167.06,137.51,167Z"/></g></g></svg>