<?xml version="1.0" standalone="no"?><!DOCTYPE svg PUBLIC "-//W3C//DTD SVG 1.1//EN" "http://www.w3.org/Graphics/SVG/1.1/DTD/svg11.dtd"><svg t="1522741193084" class="icon" style="" viewBox="0 0 1026 1024" version="1.1" xmlns="http://www.w3.org/2000/svg" p-id="2265" xmlns:xlink="http://www.w3.org/1999/xlink" width="200.390625" height="200"><defs><style type="text/css"></style></defs><path d="M787.442658 1022.677779c15.14544 0 27.406034-13.222209 27.886841-30.170677l0.240404-10.577767 0.480808 0c0.360606-7.692922 0.60101-14.424228 0.60101-20.915131 0-181.865477-100.849395-342.815823-256.991666-410.128888l-17.549478-7.57272 15.506045-11.178777c74.765583-54.090856 119.360488-144.482686 119.360488-241.605822 0-160.229135-120.201902-290.527996-268.050241-290.527996s-268.050241 130.298861-268.050241 290.527996c0 97.123137 44.594906 187.514967 119.360488 241.605822l15.506045 11.178777-17.549478 7.57272C102.171616 618.318582 1.322221 779.268928 1.322221 961.014204c0 6.490903 0.240404 13.102007 0.60101 20.915131l0.721211 0 0.120202 10.818171c0 17.188872 12.6212 31.132293 28.007043 31.132293C46.277732 1024 772.177016 1022.677779 787.442658 1022.677779M718.566968 569.636812c70.197911 8.414133 133.664515 44.715107 179.221035 102.532222 45.316117 57.576711 70.318112 133.183707 70.318112 212.877568 0 17.549478 12.861603 31.733302 28.608053 31.733302 15.265642 0 27.766639-13.342411 28.367649-30.411081l0.120202-0.961615c0-0.120202 0-0.360606 0.120202-0.480808C1025.081817 733.592206 941.18089 599.807489 811.362836 543.913605l-17.549478-7.57272 15.506045-11.178777c62.144383-44.835309 99.286771-119.841296 99.286771-200.616974 0-111.787769-69.596901-207.708886-169.484681-234.033102l-0.60101 0.240404-2.764644-0.240404c-0.60101 0-1.202019-0.120202-1.803029-0.240404-0.240404 0-0.480808-0.120202-0.721211-0.120202-15.986853 0-28.968658 14.54443-28.968658 32.21411 0 15.986853 10.337364 29.329264 24.64139 31.733302l1.322221 0.240404 1.202019 0.480808c1.442423 0.60101 3.485855 1.322221 6.130297 2.043432 0.60101 0.120202 0.961615 0.240404 1.202019 0.360606l0 0c65.630238 24.04038 109.744336 90.39183 109.744336 164.917009 0 83.299918-54.812067 154.820049-130.539265 170.927104l-1.202019 0.721211-2.52424 0.120202c-17.910083 1.202019-31.973706 17.66968-31.973706 37.382791 0 20.193919 14.424228 36.66158 32.815119 37.502993l2.404038 0.120202L718.566968 569.636812 718.566968 569.636812M718.566968 569.636812" p-id="2266"></path></svg>