<svg xmlns="http://www.w3.org/2000/svg" viewBox="0 0 22.74 24"><defs><style>.cls-1{fill:#fff;}</style></defs><title>关闭录音</title><g id="图层_2" data-name="图层 2"><g id="图层_1-2" data-name="图层 1"><path class="cls-1" d="M20.21,11.37H18.06a8.18,8.18,0,0,1-.5,2.52l1.51,1.52A7.21,7.21,0,0,0,20.21,11.37Z"/><path class="cls-1" d="M15.16,11.37V3.79A3.72,3.72,0,0,0,11.37,0,3.72,3.72,0,0,0,7.58,3.79V4l7.58,7.58Z"/><path class="cls-1" d="M1.64,1.26,0,2.91l7.58,7.57v.89a3.72,3.72,0,0,0,3.79,3.79,2.39,2.39,0,0,0,.88-.13l2.15,2.15a7.44,7.44,0,0,1-2.91.63A6.52,6.52,0,0,1,4.8,11.37H2.53a8.79,8.79,0,0,0,7.58,8.46V24h2.52V19.83a8.35,8.35,0,0,0,3.16-1.14L21.09,24l1.65-1.64Z"/></g></g></svg>