<svg xmlns="http://www.w3.org/2000/svg" viewBox="0 0 22.98 24.37"><defs><style>.cls-1{fill:#fff;}</style></defs><title>关闭美颜</title><g id="图层_2" data-name="图层 2"><g id="图层_1-2" data-name="图层 1"><path class="cls-1" d="M23,22.61,7.73,7.35,6.57,6.2h0L1.77,1.39,0,3.16,5.21,8.37a11.21,11.21,0,0,0-1.72,4.89h0c0,.29-.12,1.43-.12,1.73a9,9,0,0,0,15.08,6.61l2.76,2.76ZM12.37,21.25c-3.36,0-6.09-3.73-6.09-7.09a7.58,7.58,0,0,1,1-3.69l5.06,5.07Z"/><path class="cls-1" d="M12.37,7.06v1.4l8.73,8.73A9.31,9.31,0,0,0,21.37,15a8.51,8.51,0,0,0,0-.88h0a14.13,14.13,0,0,0-2.8-7.49A39.42,39.42,0,0,0,12.37,0,24.92,24.92,0,0,0,8.08,4.17l3.06,3.06A4.62,4.62,0,0,1,12.37,7.06Z"/></g></g></svg>