<?xml version="1.0" standalone="no"?><!DOCTYPE svg PUBLIC "-//W3C//DTD SVG 1.1//EN" "http://www.w3.org/Graphics/SVG/1.1/DTD/svg11.dtd"><svg t="1522741167121" class="icon" style="" viewBox="0 0 1024 1024" version="1.1" xmlns="http://www.w3.org/2000/svg" p-id="2005" xmlns:xlink="http://www.w3.org/1999/xlink" width="200" height="200"><defs><style type="text/css"></style></defs><path d="M151.041 305.246c39.883-59.212 94.273-108.096 157.291-141.37 23.579-12.449 32.6-41.658 20.151-65.239-12.449-23.578-41.663-32.602-65.239-20.15-77.048 40.682-143.541 100.44-192.291 172.813-14.895 22.117-9.045 52.122 13.072 67.019 8.275 5.572 17.65 8.241 26.928 8.241 15.523-0.001 30.765-7.472 40.088-21.314z m359.305-160.674c-222.208 0-402.342 180.135-402.342 402.342 0 98.949 35.741 189.537 94.99 259.611l-75.667 75.669c-12.571 12.569-12.571 32.95 0 45.519 6.285 6.285 14.524 9.428 22.761 9.428 8.239 0 16.475-3.143 22.761-9.428l75.48-75.482c70.398 60.469 161.933 97.026 262.016 97.026 98.951 0 189.539-35.743 259.613-94.992l73.447 73.449c6.287 6.287 14.522 9.428 22.761 9.428 8.238 0 16.475-3.143 22.762-9.428 12.571-12.571 12.571-32.952 0-45.519l-73.26-73.264c60.465-70.398 97.02-161.935 97.02-262.016 0-222.21-180.135-402.343-402.342-402.343z m238.979 641.319c-63.832 63.834-148.706 98.988-238.979 98.988s-175.147-35.156-238.979-98.99c-63.832-63.832-98.988-148.701-98.988-238.975 0-90.276 35.156-175.146 98.988-238.981 63.833-63.833 148.706-98.986 238.979-98.986s175.147 35.154 238.979 98.986c63.833 63.835 98.988 148.705 98.988 238.981 0 90.274-35.156 175.143-98.988 238.977z m200.413-534.592c-48.751-72.371-115.241-132.13-192.289-172.813-23.579-12.449-52.788-3.43-65.237 20.15-12.451 23.579-3.43 52.788 20.151 65.239 63.015 33.274 117.406 82.16 157.289 141.37 9.324 13.844 24.565 21.313 40.087 21.313 9.278 0 18.657-2.67 26.928-8.241 22.117-14.896 27.966-44.901 13.071-67.018zM639.095 514.727h-96.562V321.603c0-17.777-14.41-32.187-32.187-32.187-17.775 0-32.187 14.41-32.187 32.187v225.312c0 17.775 14.412 32.187 32.187 32.187h128.749c17.777 0 32.187-14.412 32.187-32.187 0.001-17.778-14.409-32.188-32.187-32.188z" p-id="2006"></path></svg>